<?xml version="1.0" encoding="UTF-8"?>
<svg width="320" height="320" viewBox="0 0 320 320" fill="none" xmlns="http://www.w3.org/2000/svg">
  <rect width="320" height="320" rx="32" fill="url(#paint0_linear)" />
  <g filter="url(#filter0_d)">
    <rect x="62" y="48" width="196" height="224" rx="24" fill="white" opacity="0.95"/>
  </g>
  <rect x="90" y="76" width="140" height="22" rx="11" fill="#E4F2EE"/>
  <rect x="90" y="112" width="116" height="12" rx="6" fill="#D8E8E1"/>
  <rect x="90" y="136" width="80" height="12" rx="6" fill="#D8E8E1"/>
  <rect x="90" y="196" width="140" height="12" rx="6" fill="#D8E8E1"/>
  <rect x="90" y="220" width="116" height="12" rx="6" fill="#D8E8E1"/>
  <rect x="90" y="244" width="132" height="12" rx="6" fill="#D8E8E1"/>
  <circle cx="212" cy="162" r="46" fill="#1C8C5E" opacity="0.12"/>
  <circle cx="204" cy="154" r="42" fill="#1C8C5E" opacity="0.2"/>
  <circle cx="194" cy="146" r="34" fill="#26A372"/>
  <path d="M178.5 147.5L190 159L213.5 135.5" stroke="white" stroke-width="10" stroke-linecap="round" stroke-linejoin="round"/>
  <path d="M226 197L256 227" stroke="#1C8C5E" stroke-width="14" stroke-linecap="round"/>
  <defs>
    <filter id="filter0_d" x="46" y="32" width="228" height="256" filterUnits="userSpaceOnUse" color-interpolation-filters="sRGB">
      <feFlood flood-opacity="0" result="BackgroundImageFix"/>
      <feColorMatrix in="SourceAlpha" type="matrix" values="0 0 0 0 0 0 0 0 0 0 0 0 0 0 0 0 0 0 127 0" result="hardAlpha"/>
      <feOffset dy="8"/>
      <feGaussianBlur stdDeviation="8"/>
      <feComposite in2="hardAlpha" operator="out"/>
      <feColorMatrix type="matrix" values="0 0 0 0 0.07 0 0 0 0 0.22 0 0 0 0 0.15 0 0 0 0.25 0"/>
      <feBlend mode="normal" in2="BackgroundImageFix" result="effect1_dropShadow"/>
      <feBlend mode="normal" in="SourceGraphic" in2="effect1_dropShadow" result="shape"/>
    </filter>
    <linearGradient id="paint0_linear" x1="0" y1="0" x2="320" y2="320" gradientUnits="userSpaceOnUse">
      <stop stop-color="#1B6E4F"/>
      <stop offset="1" stop-color="#0F3D2A"/>
    </linearGradient>
  </defs>
</svg>
